<svg width="53" height="53" viewBox="0 0 53 53" fill="none" xmlns="http://www.w3.org/2000/svg">
<path fill-rule="evenodd" clip-rule="evenodd" d="M15.7294 0.53175C18.5153 0.4035 19.4035 0.375 26.5 0.375C33.5965 0.375 34.4848 0.405875 37.2683 0.53175C40.0518 0.657625 41.9517 1.10175 43.6142 1.74538C45.3551 2.40325 46.9345 3.43162 48.2407 4.76162C49.5707 6.0655 50.5968 7.6425 51.2523 9.38575C51.8983 11.0483 52.34 12.9483 52.4683 15.727C52.5965 18.5176 52.625 19.4059 52.625 26.5C52.625 33.5965 52.5941 34.4847 52.4683 37.2706C52.3424 40.0494 51.8983 41.9494 51.2523 43.6119C50.5967 45.3553 49.569 46.935 48.2407 48.2407C46.9345 49.5707 45.3551 50.5968 43.6142 51.2523C41.9517 51.8983 40.0517 52.34 37.273 52.4683C34.4847 52.5965 33.5965 52.625 26.5 52.625C19.4035 52.625 18.5153 52.5941 15.7294 52.4683C12.9506 52.3424 11.0506 51.8983 9.38813 51.2523C7.64469 50.5967 6.06507 49.569 4.75925 48.2407C3.43015 46.9361 2.40162 45.3572 1.74538 43.6142C1.10175 41.9517 0.66 40.0517 0.53175 37.273C0.4035 34.4824 0.375 33.5941 0.375 26.5C0.375 19.4035 0.405875 18.5153 0.53175 15.7318C0.657625 12.9483 1.10175 11.0483 1.74538 9.38575C2.40259 7.64269 3.43191 6.06387 4.76162 4.75925C6.0656 3.43044 7.64362 2.40193 9.38575 1.74538C11.0483 1.10175 12.9483 0.66 15.727 0.53175H15.7294ZM37.0569 5.23425C34.3019 5.10838 33.4754 5.08225 26.5 5.08225C19.5246 5.08225 18.6981 5.10838 15.9431 5.23425C13.3947 5.35063 12.0125 5.77575 11.091 6.13437C9.87263 6.60937 9.001 7.17225 8.08663 8.08663C7.21986 8.92987 6.5528 9.95642 6.13437 11.091C5.77575 12.0125 5.35063 13.3947 5.23425 15.9431C5.10838 18.6981 5.08225 19.5246 5.08225 26.5C5.08225 33.4754 5.10838 34.3019 5.23425 37.0569C5.35063 39.6052 5.77575 40.9875 6.13437 41.909C6.55237 43.0419 7.21975 44.0703 8.08663 44.9134C8.92975 45.7803 9.95813 46.4476 11.091 46.8656C12.0125 47.2243 13.3947 47.6494 15.9431 47.7658C18.6981 47.8916 19.5223 47.9177 26.5 47.9177C33.4777 47.9177 34.3019 47.8916 37.0569 47.7658C39.6052 47.6494 40.9875 47.2243 41.909 46.8656C43.1274 46.3906 43.999 45.8278 44.9134 44.9134C45.7803 44.0703 46.4476 43.0419 46.8656 41.909C47.2243 40.9875 47.6494 39.6052 47.7658 37.0569C47.8916 34.3019 47.9177 33.4754 47.9177 26.5C47.9177 19.5246 47.8916 18.6981 47.7658 15.9431C47.6494 13.3947 47.2243 12.0125 46.8656 11.091C46.3906 9.87263 45.8278 9.001 44.9134 8.08663C44.0701 7.21992 43.0435 6.55288 41.909 6.13437C40.9875 5.77575 39.6052 5.35063 37.0569 5.23425V5.23425ZM23.1631 34.5536C25.0267 35.3294 27.1018 35.4341 29.034 34.8498C30.9661 34.2656 32.6356 33.0287 33.7571 31.3503C34.8786 29.672 35.3826 27.6563 35.1831 25.6476C34.9836 23.6389 34.0929 21.7618 32.6631 20.3369C31.7517 19.426 30.6496 18.7286 29.4363 18.2947C28.223 17.8609 26.9285 17.7015 25.6462 17.828C24.3638 17.9544 23.1255 18.3637 22.0203 19.0262C20.9151 19.6887 19.9705 20.588 19.2546 21.6594C18.5387 22.7308 18.0692 23.9476 17.88 25.2222C17.6908 26.4968 17.7865 27.7974 18.1603 29.0306C18.5341 30.2638 19.1766 31.3987 20.0417 32.3537C20.9068 33.3087 21.9728 34.0601 23.1631 34.5536ZM17.0047 17.0047C18.2517 15.7578 19.732 14.7687 21.3612 14.0939C22.9904 13.419 24.7366 13.0717 26.5 13.0717C28.2634 13.0717 30.0096 13.419 31.6388 14.0939C33.268 14.7687 34.7483 15.7578 35.9953 17.0047C37.2422 18.2517 38.2313 19.732 38.9061 21.3612C39.581 22.9904 39.9283 24.7366 39.9283 26.5C39.9283 28.2634 39.581 30.0096 38.9061 31.6388C38.2313 33.268 37.2422 34.7483 35.9953 35.9953C33.477 38.5135 30.0614 39.9283 26.5 39.9283C22.9386 39.9283 19.523 38.5135 17.0047 35.9953C14.4865 33.477 13.0717 30.0614 13.0717 26.5C13.0717 22.9386 14.4865 19.523 17.0047 17.0047V17.0047ZM42.9065 15.0715C43.2155 14.78 43.4629 14.4295 43.634 14.0407C43.8051 13.6519 43.8964 13.2327 43.9026 12.808C43.9088 12.3832 43.8297 11.9616 43.67 11.5679C43.5103 11.1743 43.2733 10.8167 42.9729 10.5163C42.6725 10.216 42.315 9.97892 41.9213 9.81923C41.5277 9.65954 41.106 9.58044 40.6813 9.58663C40.2565 9.59283 39.8374 9.68418 39.4486 9.85528C39.0598 10.0264 38.7092 10.2738 38.4177 10.5827C37.8509 11.1837 37.5405 11.9819 37.5525 12.808C37.5646 13.634 37.8981 14.4228 38.4822 15.007C39.0664 15.5912 39.8552 15.9247 40.6813 15.9367C41.5073 15.9488 42.3056 15.6384 42.9065 15.0715V15.0715Z" fill="white"/>
</svg>
