<svg width="163" height="250" viewBox="0 0 163 250" fill="none" xmlns="http://www.w3.org/2000/svg">
<g filter="url(#filter0_f_25_125)">
<path d="M108.66 166.424V188H14.7V124.142L83.952 115.442V87.776H15.744V66.2H89.868L108.66 84.992V132.842L39.408 141.542V166.424H108.66ZM137.261 188V176.48H148.013V188H137.261Z" fill="url(#paint0_linear_25_125)" fill-opacity="0.37"/>
</g>
<path d="M108.66 171.424V193H14.7V129.142L83.952 120.442V92.776H15.744V71.2H89.868L108.66 89.992V137.842L39.408 146.542V171.424H108.66ZM137.261 193V181.48H148.013V193H137.261Z" fill="url(#paint1_linear_25_125)" fill-opacity="0.37"/>
<path d="M114.46 121.344V133H63.7V98.502L101.112 93.802V78.856H64.264V67.2H104.308L114.46 77.352V103.202L77.048 107.902V121.344H114.46ZM133.089 133V121.48H143.841V133H133.089Z" fill="#E1E1E1"/>
<defs>
<filter id="filter0_f_25_125" x="0.700012" y="52.2" width="161.313" height="149.8" filterUnits="userSpaceOnUse" color-interpolation-filters="sRGB">
<feFlood flood-opacity="0" result="BackgroundImageFix"/>
<feBlend mode="normal" in="SourceGraphic" in2="BackgroundImageFix" result="shape"/>
<feGaussianBlur stdDeviation="7" result="effect1_foregroundBlur_25_125"/>
</filter>
<linearGradient id="paint0_linear_25_125" x1="80.5" y1="0" x2="80.1208" y2="302" gradientUnits="userSpaceOnUse">
<stop stop-color="#21FFFF"/>
<stop offset="1" stop-color="#D9D9D9" stop-opacity="0"/>
</linearGradient>
<linearGradient id="paint1_linear_25_125" x1="80.5" y1="5" x2="80.1208" y2="307" gradientUnits="userSpaceOnUse">
<stop stop-color="#21FFFF"/>
<stop offset="1" stop-color="#D9D9D9" stop-opacity="0"/>
</linearGradient>
</defs>
</svg>
