<svg width="57" height="57" viewBox="0 0 57 57" fill="none" xmlns="http://www.w3.org/2000/svg">
<path d="M28.5 0.890625C12.7598 0.890625 0 13.2517 0 28.5C0 43.7483 12.7598 56.1094 28.5 56.1094C44.2402 56.1094 57 43.7483 57 28.5C57 13.2517 44.2402 0.890625 28.5 0.890625ZM41.7102 19.6672C41.2813 24.033 39.4255 34.6273 38.481 39.517C38.0815 41.586 37.2948 42.2798 36.5333 42.3475C34.8785 42.4952 33.6215 41.288 32.0185 40.2701C29.5101 38.6772 28.0931 37.6856 25.6582 36.1312C22.8444 34.3349 24.6685 33.348 26.2721 31.7337C26.6917 31.3115 33.984 24.886 34.1251 24.303C34.1427 24.2301 34.1595 23.9579 33.9925 23.815C33.8254 23.672 33.5799 23.7205 33.4023 23.7593C33.1508 23.8147 29.1437 26.3805 21.3809 31.4568C20.2435 32.2133 19.2133 32.582 18.2902 32.5627C17.2726 32.5414 15.3152 32.0054 13.86 31.5471C12.0752 30.9851 10.6566 30.6879 10.7801 29.7334C10.8445 29.2361 11.5512 28.7277 12.9004 28.2082C21.2087 24.7015 26.7489 22.3896 29.5209 21.2725C37.4357 18.0832 39.0803 17.5293 40.1522 17.5108C40.3881 17.507 40.9152 17.5636 41.2566 17.832C41.4837 18.0232 41.6285 18.29 41.6623 18.5797C41.7201 18.9393 41.7362 19.3041 41.7102 19.6672V19.6672Z" fill="#D1D1D1"/>
</svg>
