<svg width="57" height="57" viewBox="0 0 57 57" fill="none" xmlns="http://www.w3.org/2000/svg">
<path d="M21.375 28.5C19.4961 28.5 17.6594 29.0572 16.0971 30.101C14.5348 31.1449 13.3172 32.6286 12.5981 34.3645C11.8791 36.1004 11.691 38.0105 12.0575 39.8534C12.4241 41.6962 13.3289 43.3889 14.6575 44.7175C15.9861 46.0461 17.6788 46.9509 19.5216 47.3175C21.3645 47.684 23.2746 47.4959 25.0105 46.7769C26.7464 46.0578 28.2301 44.8402 29.274 43.2779C30.3178 41.7156 30.875 39.8789 30.875 38V9.5C30.875 12.6494 32.1261 15.6699 34.3531 17.8969C36.5801 20.1239 39.6006 21.375 42.75 21.375" stroke="white" stroke-width="2" stroke-linecap="round" stroke-linejoin="round"/>
</svg>
