<svg width="57" height="57" viewBox="0 0 57 57" fill="none" xmlns="http://www.w3.org/2000/svg">
<path d="M46.0038 19.6531V20.8406C46.0038 32.7987 36.9313 46.5024 20.33 46.5024C15.4291 46.513 10.6323 45.0888 6.53125 42.4056C7.24348 42.5023 7.96192 42.5459 8.68062 42.5362C12.7431 42.5473 16.6913 41.1922 19.8906 38.6887C18.0033 38.6609 16.1728 38.0389 14.6592 36.9112C13.1456 35.7834 12.0259 34.2073 11.4594 32.4068C12.0216 32.526 12.5947 32.5857 13.1694 32.5849C13.9718 32.5851 14.7707 32.4773 15.5444 32.2643C13.5002 31.8568 11.6612 30.7516 10.3419 29.1378C9.02271 27.5239 8.30532 25.5018 8.3125 23.4174V23.2987C9.56318 23.9973 10.9653 24.3805 12.3975 24.4149C10.4911 23.1604 9.13565 21.2253 8.60815 19.0049C8.08065 16.7846 8.4209 14.4466 9.55938 12.4687C11.8278 15.2587 14.658 17.5401 17.866 19.1645C21.074 20.789 24.5879 21.7201 28.1794 21.8974C28.0016 21.2234 27.9177 20.5281 27.93 19.8312C27.8631 17.9893 28.3656 16.1715 29.3689 14.6254C30.3722 13.0793 31.8277 11.8799 33.5371 11.1907C35.2465 10.5015 37.1268 10.3559 38.922 10.7737C40.7172 11.1915 42.3399 12.1524 43.5694 13.5256C45.5902 13.1177 47.5288 12.3752 49.305 11.3287C48.6314 13.4559 47.1984 15.2609 45.2794 16.3993C47.072 16.1523 48.8198 15.6484 50.4688 14.9031C49.2737 16.7385 47.7618 18.3469 46.0038 19.6531V19.6531Z" stroke="white" stroke-linecap="round" stroke-linejoin="round"/>
</svg>
